<?xml version="1.0" standalone="no"?>
<!DOCTYPE svg PUBLIC "-//W3C//DTD SVG 20010904//EN" "http://www.w3.org/TR/2001/REC-SVG-20010904/DTD/svg10.dtd">
<!-- Created using Krita: https://krita.org -->
<svg xmlns="http://www.w3.org/2000/svg" 
    xmlns:xlink="http://www.w3.org/1999/xlink"
    xmlns:krita="http://krita.org/namespaces/svg/krita"
    xmlns:sodipodi="http://sodipodi.sourceforge.net/DTD/sodipodi-0.dtd"
    width="72pt"
    height="72pt"
    viewBox="0 0 72 72">
<defs/>
<path id="shape0" transform="translate(4.60500000831481, 4.8)" fill="#282828" fill-rule="evenodd" stroke="#62651f" stroke-width="0.0024" stroke-linecap="square" stroke-linejoin="bevel" d="M4.16325 0L0 4.1535L0 58.227L4.173 62.4L58.2465 62.4L62.4 58.2465L62.4 4.1535L58.24 0Z" sodipodi:nodetypes="ccccccccc"/><path id="shape01" transform="translate(9.72, 43.829999996245)" fill="#b57614" fill-rule="evenodd" stroke="#fabd2f" stroke-width="0.0024" stroke-linecap="square" stroke-linejoin="bevel" d="M3.12 0L0 3.2L0 6.4L3.12 9.6L6.24 9.6L9.36 6.4L9.36 3.2L6.24 0Z" sodipodi:nodetypes="ccccccccc"/><path id="shape02" transform="translate(24, 34.5300002537361)" fill="#b57614" fill-rule="evenodd" stroke="#fb4934" stroke-width="0.0024" stroke-linecap="square" stroke-linejoin="bevel" d="M38.4 0L38.3734 0L38.3734 3.0911L35.2748 0L31.92 0L28.8 3.1125L28.8 19.2L9.6 19.2L9.6 0L0 9.6L0 0L0 24L4.8 28.8L33.6 28.8L38.4 24L38.4 0" sodipodi:nodetypes="cccccccccccccccc"/><path id="shape03" transform="matrix(-1 0 0 1 48 32.4011201869595)" fill="#b57614" fill-rule="evenodd" stroke="#fabd2f" stroke-width="0.0024" stroke-linecap="square" stroke-linejoin="bevel" d="M9.6 9.6L0 0L0 9.6Z" sodipodi:nodetypes="cccc"/><path id="shape04" transform="matrix(1 0 0 -1 24 42.1799999774702)" fill="#cc241d" fill-rule="evenodd" stroke="#fabd2f" stroke-width="0.0024" stroke-linecap="square" stroke-linejoin="bevel" d="M9.6 9.6L0 0L0 9.6Z" sodipodi:nodetypes="cccc"/><path id="shape05" transform="translate(9.6, 11.2199998937849)" fill="#cc241d" fill-rule="evenodd" stroke="#fb4934" stroke-width="0.0024" stroke-linecap="square" stroke-linejoin="bevel" d="M0 28.8L0.02661 28.8L0.02661 25.7089L3.1252 28.8L6.48 28.8L9.6 25.6875L9.6 9.6L28.8 9.6L28.8 28.8L38.4 19.2L38.4 4.8L33.6 0L4.8 0L0 4.8L0 28.8" sodipodi:nodetypes="ccccccccccccccc"/><path id="shape06" transform="translate(52.92, 20.0999999946358)" fill="#cc241d" fill-rule="evenodd" stroke="#fb4934" stroke-width="0.0024" stroke-linecap="square" stroke-linejoin="bevel" d="M3.12 0L0 3.2L0 6.4L3.12 9.6L6.24 9.6L9.36 6.4L9.36 3.2L6.24 0Z" sodipodi:nodetypes="ccccccccc"/><path id="shape1" fill="#fb4934" fill-rule="evenodd" stroke="#fb4934" stroke-width="0.0024" stroke-linecap="square" stroke-linejoin="bevel" d="M9.6 38.4L9.62661 38.4L9.62661 35.3089L12.7252 38.4L16.08 38.4L19.2 35.2875L19.2 19.2L38.4 19.2L38.4 38.4L48 28.8L48 14.4L43.2 9.6L14.4 9.6L9.6 14.4L9.6 38.4" sodipodi:nodetypes="ccccccccccccccc"/><path id="shape2" transform="translate(52.9200007789119, 19.2)" fill="#fb4934" fill-rule="evenodd" stroke="#fb4934" stroke-width="0.0024" stroke-linecap="square" stroke-linejoin="bevel" d="M3.12 0L0 3.2L0 6.4L3.12 9.6L6.24 9.6L9.36 6.4L9.36 3.2L6.24 0Z" sodipodi:nodetypes="ccccccccc"/><path id="shape07" transform="translate(9.72, 43.2)" fill="#fabd2f" fill-rule="evenodd" stroke="#fabd2f" stroke-width="0.0024" stroke-linecap="square" stroke-linejoin="bevel" d="M3.12 0L0 3.2L0 6.4L3.12 9.6L6.24 9.6L9.36 6.4L9.36 3.2L6.24 0Z" sodipodi:nodetypes="ccccccccc"/><path id="shape3" fill="#fabd2f" fill-rule="evenodd" stroke="#fb4934" stroke-width="0.0024" stroke-linecap="square" stroke-linejoin="bevel" d="M62.4 33.6L62.3734 33.6L62.3734 36.6911L59.2748 33.6L55.92 33.6L52.8 36.7125L52.8 52.8L33.6 52.8L33.6 33.6L24 43.2L24 33.6L24 57.6L28.8 62.4L57.6 62.4L62.4 57.6L62.4 33.6" sodipodi:nodetypes="cccccccccccccccc"/><path id="shape08" transform="matrix(-1 0 0 1 48 31.6200000118013)" fill="#fabd2f" fill-rule="evenodd" stroke="#fabd2f" stroke-width="0.0024" stroke-linecap="square" stroke-linejoin="bevel" d="M9.6 9.6L0 0L0 9.6Z" sodipodi:nodetypes="cccc"/><path id="shape09" transform="matrix(1 0 0 -1 24 41.0099999844437)" fill="#fb4934" fill-rule="evenodd" stroke="#fabd2f" stroke-width="0.0024" stroke-linecap="square" stroke-linejoin="bevel" d="M9.6 9.6L0 0L0 9.6Z" sodipodi:nodetypes="cccc"/>
</svg>
