<?xml version="1.0" standalone="no"?>
<!DOCTYPE svg PUBLIC "-//W3C//DTD SVG 20010904//EN" "http://www.w3.org/TR/2001/REC-SVG-20010904/DTD/svg10.dtd">
<!-- Created using Krita: https://krita.org -->
<svg xmlns="http://www.w3.org/2000/svg" 
    xmlns:xlink="http://www.w3.org/1999/xlink"
    xmlns:krita="http://krita.org/namespaces/svg/krita"
    xmlns:sodipodi="http://sodipodi.sourceforge.net/DTD/sodipodi-0.dtd"
    width="240pt"
    height="240pt"
    viewBox="0 0 240 240">
<defs/>
<path id="shape0" fill="#ebdbb2" fill-rule="evenodd" d="M240 120L239.96 116.854L239.839 113.727L239.639 110.622L239.361 107.539L239.005 104.478L238.574 101.442L238.067 98.4298L237.485 95.444L236.831 92.4851L236.104 89.554L235.305 86.6518L234.437 83.7794L233.499 80.9379L232.492 78.1281L231.419 75.3512L230.279 72.608L229.073 69.8996L227.803 67.227L226.47 64.5912L225.074 61.9931L223.616 59.4337L222.099 56.914L220.521 54.4351L218.886 51.9978L217.192 49.6033L215.443 47.2524L213.637 44.9461L211.778 42.6855L209.864 40.4716L207.898 38.3052L205.881 36.1875L203.812 34.1194L201.695 32.1019L199.528 30.1359L197.314 28.2225L195.054 26.3627L192.748 24.5573L190.397 22.8076L188.002 21.1143L185.565 19.4786L183.086 17.9013L180.566 16.3835L178.007 14.9262L175.409 13.5303L172.773 12.1969L170.1 10.927L167.392 9.7214L164.649 8.58125L161.872 7.5075L159.062 6.50114L156.221 5.56314L153.348 4.69451L150.446 3.89623L147.515 3.16929L144.556 2.51467L141.57 1.93336L138.558 1.42636L135.522 0.994642L132.461 0.639206L129.378 0.361036L126.273 0.161119L123.146 0.0404444L120 0L116.854 0.0404444L113.727 0.161119L110.622 0.361036L107.539 0.639206L104.478 0.994642L101.442 1.42636L98.4298 1.93336L95.444 2.51467L92.4851 3.16929L89.554 3.89623L86.6518 4.69451L83.7794 5.56314L80.9379 6.50114L78.1281 7.5075L75.3512 8.58125L72.608 9.7214L69.8996 10.927L67.227 12.1969L64.5912 13.5303L61.9931 14.9262L59.4337 16.3835L56.914 17.9013L54.4351 19.4786L51.9978 21.1143L50.8657 21.9149L70.0598 40.0987L70.1162 40.0595L71.9978 38.8211L73.9102 37.6294L75.8527 36.4852L77.8247 35.3892L79.8253 34.3422L81.8538 33.3451L83.9095 32.3985L85.9915 31.5033L88.0992 30.6602L90.2318 29.87L92.3886 29.1335L94.5687 28.4515L96.7715 27.8247L98.9962 27.254L101.242 26.74L103.508 26.2835L105.794 25.8855L108.099 25.5465L110.422 25.2674L112.762 25.049L115.119 24.892L117.492 24.7973L119.88 24.7655L122.268 24.7973L124.641 24.892L126.998 25.049L129.338 25.2674L131.661 25.5465L133.966 25.8855L136.252 26.2835L138.518 26.74L140.764 27.254L142.988 27.8247L145.191 28.4515L147.371 29.1335L149.528 29.87L151.661 30.6602L153.768 31.5033L155.851 32.3985L157.906 33.3451L159.935 34.3422L161.935 35.3892L163.907 36.4852L165.85 37.6294L167.762 38.8211L169.644 40.0595L171.494 41.3439L173.311 42.6734L175.095 44.0473L176.846 45.4647L178.562 46.925L180.242 48.4274L181.886 49.971L183.494 51.5551L185.063 53.179L186.595 54.8417L188.087 56.5427L189.539 58.281L190.951 60.056L192.321 61.8668L193.649 63.7126L194.934 65.5928L196.176 67.5065L197.373 69.4529L198.525 71.4312L199.631 73.4408L200.69 75.4807L201.703 77.5503L202.666 79.6488L203.581 81.7753L204.447 83.9292L205.262 86.1096L206.026 88.3157L206.738 90.5468L207.397 92.8021L208.003 95.0809L208.555 97.3823L209.051 99.7055L209.493 102.05L209.877 104.415L210.205 106.799L210.475 109.202L210.686 111.623L210.838 114.061L210.929 116.516L210.96 118.986L210.929 121.457L210.838 123.911L210.686 126.349L210.475 128.771L210.205 131.174L209.877 133.558L209.493 135.922L209.051 138.267L208.555 140.59L208.003 142.892L207.397 145.17L206.738 147.426L206.026 149.657L205.262 151.863L204.447 154.043L203.581 156.197L202.666 158.324L201.703 160.422L200.69 162.492L200.216 163.405L221.682 183.741L222.099 183.086L223.616 180.566L225.074 178.007L226.47 175.409L227.803 172.773L229.073 170.1L230.279 167.392L231.419 164.649L232.492 161.872L233.499 159.062L234.437 156.221L235.305 153.348L236.104 150.446L236.831 147.515L237.485 144.556L238.067 141.57L238.574 138.558L239.005 135.522L239.361 132.461L239.639 129.378L239.839 126.273L239.96 123.146L240 120M26.1704 45.1917L24.5573 47.2524L22.8076 49.6033L21.1143 51.9978L19.4786 54.4351L17.9013 56.914L16.3835 59.4337L14.9262 61.9931L13.5303 64.5912L12.1969 67.227L10.927 69.8996L9.7214 72.608L8.58125 75.3512L7.5075 78.1281L6.50114 80.9379L5.56314 83.7794L4.69451 86.6518L3.89623 89.554L3.16929 92.4851L2.51467 95.444L1.93336 98.4298L1.42636 101.442L0.994642 104.478L0.639206 107.539L0.361036 110.622L0.161119 113.727L0.0404444 116.854L0 120L0.0404444 123.146L0.161119 126.273L0.361036 129.378L0.639206 132.461L0.994642 135.522L1.42636 138.558L1.93336 141.57L2.51467 144.556L3.16929 147.515L3.89623 150.446L4.69451 153.348L5.56314 156.221L6.50114 159.062L7.5075 161.872L8.58125 164.649L9.7214 167.392L10.927 170.1L12.1969 172.773L13.5303 175.409L14.9262 178.007L16.3835 180.566L17.9013 183.086L19.4786 185.565L21.1143 188.002L22.8076 190.397L24.5573 192.748L26.3627 195.054L28.2225 197.314L30.1359 199.528L32.1019 201.695L34.1194 203.812L36.1875 205.881L38.3052 207.898L40.4716 209.864L42.6855 211.778L44.9461 213.637L47.2524 215.443L49.6033 217.192L51.9978 218.886L54.4351 220.521L56.914 222.099L59.4337 223.616L61.9931 225.074L64.5912 226.47L67.227 227.803L69.8996 229.073L72.608 230.279L75.3512 231.419L78.1281 232.492L80.9379 233.499L83.7794 234.437L86.6518 235.305L89.554 236.104L92.4851 236.831L95.444 237.485L98.4298 238.067L101.442 238.574L104.478 239.005L107.539 239.361L110.622 239.639L113.727 239.839L116.854 239.96L120 240L123.146 239.96L126.273 239.839L129.378 239.639L132.461 239.361L135.522 239.005L138.558 238.574L141.57 238.067L144.556 237.485L147.515 236.831L150.446 236.104L153.348 235.305L156.221 234.437L159.062 233.499L161.872 232.492L164.649 231.419L167.392 230.279L170.1 229.073L172.773 227.803L175.409 226.47L178.007 225.074L180.566 223.616L183.086 222.099L185.565 220.521L188.002 218.886L190.397 217.192L192.748 215.443L195.054 213.637L197.22 211.855L177.122 192.273L176.846 192.508L175.095 193.925L173.311 195.299L171.494 196.629L169.644 197.913L167.762 199.151L165.85 200.343L163.907 201.487L161.935 202.583L159.935 203.63L157.906 204.627L155.851 205.574L153.768 206.469L151.661 207.312L149.528 208.102L147.371 208.839L145.191 209.521L142.988 210.148L140.764 210.718L138.518 211.232L136.252 211.689L133.966 212.087L131.661 212.426L129.338 212.705L126.998 212.923L124.641 213.08L122.268 213.175L119.88 213.207L117.492 213.175L115.119 213.08L112.762 212.923L110.422 212.705L108.099 212.426L105.794 212.087L103.508 211.689L101.242 211.232L98.9962 210.718L96.7715 210.148L94.5687 209.521L92.3886 208.839L90.2318 208.102L88.0992 207.312L85.9915 206.469L83.9095 205.574L81.8538 204.627L79.8253 203.63L77.8247 202.583L75.8527 201.487L73.9102 200.343L71.9978 199.151L70.1162 197.913L68.2664 196.629L66.4489 195.299L64.6645 193.925L62.9141 192.508L61.1983 191.047L59.5179 189.545L57.8737 188.001L56.2663 186.417L54.6966 184.793L53.1653 183.131L51.6731 181.43L50.2209 179.691L48.8093 177.916L47.439 176.106L46.1109 174.26L44.8258 172.38L43.5842 170.466L42.3871 168.52L41.2351 166.541L40.129 164.532L39.0695 162.492L38.0575 160.422L37.0936 158.324L36.1785 156.197L35.3132 154.043L34.4982 151.863L33.7344 149.657L33.0224 147.426L32.3631 145.17L31.7572 142.892L31.2055 140.59L30.7086 138.267L30.2674 135.922L29.8826 133.558L29.5549 131.174L29.2852 128.771L29.074 126.349L28.9223 123.911L28.8307 121.457L28.8 118.986L28.8307 116.516L28.9223 114.061L29.074 111.623L29.2852 109.202L29.5549 106.799L29.8826 104.415L30.2674 102.05L30.7086 99.7055L31.2055 97.3823L31.7572 95.0809L32.3631 92.8021L33.0224 90.5468L33.7344 88.3157L34.4982 86.1096L35.3132 83.9292L36.1785 81.7753L37.0936 79.6488L38.0575 77.5503L39.0695 75.4807L40.129 73.4408L41.2351 71.4312L42.3871 69.4529L43.5842 67.5065L44.8258 65.5928L45.7383 64.2578L26.1704 45.1917" sodipodi:nodetypes="cccccccccccccccccccccccccccccccccccccccccccccccccccccccccccccccccccccccccccccccccccccccccccccccccccccccccccccccccccccccccccccccccccccccccccccccccccccccccccccccccccccccccccccccccccccccccccccccccccccccccccccccccccccccccccccccccccccccccccccccccccccccccccccccccccccccccccccccccccccccccccccccccccccccccccccccccccccccccccccccccccccccccccccccccccccccccccccccccccccccccccccccccccccccccccccccccccccccccccccccccccccccccccccccccccccccccccccccccccccccccccccccccccccccccc"/><circle id="shape1" transform="translate(76.3200001594543, 76.8)" r="43.2" cx="43.2" cy="43.2" fill="#ebdbb2" fill-rule="evenodd"/>
</svg>
